<svg id="Layer_1" data-name="Layer 1" xmlns="http://www.w3.org/2000/svg" viewBox="0 0 1512.86 676.87"><defs><style>.cls-1{fill:none;stroke:#f4bb9a;stroke-linecap:round;stroke-linejoin:round;stroke-width:2px;}</style></defs><title>register</title><path class="cls-1" d="M1521.32,1127.91c-3.22-1.65-4.64-4.68-6.36-7.67-10.06-17.46-20.51-34.64-31.95-51.27-8.48-12.34-19.93-21.56-32.06-28.66-9.89-5.79-21.89-9.36-33.92-11.25-20.19-3.18-40.3-4.36-60.2.92-21.79,5.78-40.31,17.12-56.14,33.41-17.14,17.63-27.87,38.29-31.25,62.43-2.91,20.81-.49,41.44,5.48,61.58,10.6,35.8,29.1,67.79,48.3,99.4,27,44.42,51.39,90.31,77.62,135.17,14.77,25.26,30.19,50.16,43.47,76.27,7.16,14.07,12.25,28.82,10.37,44.79-2,17-12.14,28-27.84,34.36-14.21,5.76-29.24,6.57-44.12,6.75-23.56.29-47.14-.68-70.7-1.23-7.36-.17-14.74-6.81-15.34-14-0.77-9.25,2.64-15,11.86-17.42,4.32-1.13,8.88-1.32,13.28-2.2,13.18-2.66,18.82-10,21.07-23.06,2.52-14.68-2.41-27.93-7.05-41.32-3.31-9.53-5.64-19.2-3.52-29.4,1.78-8.59,4.72-11.11,13.31-11.19,4.9,0,9.8.07,14.7,0,8.07-.15,11.35-3.07,11.84-11.19,0.42-6.84-.7-13.79-4.26-19.52-14.45-23.18-26.16-47.91-41-70.88-14.57-22.48-33.63-38.46-59.67-45.34-17.82-4.71-36.79-5.78-53.65-.08-20,6.75-39.32,17.1-52.07,35.69a7.23,7.23,0,0,1-2.07,1.42" transform="translate(-262.2 -908.84)"/><path class="cls-1" d="M267.5,962.79c12,0.59,16.44,8,18.91,18.81,4.55,19.94,1,39.38-3.47,58.81-6.29,27.54-15.92,54.3-19,82.6-2.56,23.68.86,45.77,16.91,64.35,11.35,13.14,26.62,19.33,43.33,22.49,4,0.76,7.9,2,11.91,2.74,26.47,4.66,35.53,27.61,32.25,49.74-2.81,19-12.74,34.61-22.49,50.38C336.41,1328,325.53,1342.53,318,1359c-5.66,12.36-10.45,25-7.12,39.17,4.58,19.51,17.56,29.71,36.44,33.59a128.78,128.78,0,0,0,25.9,2.88c22.4,0,44.81.72,67.21,0.52,17.69-.16,35.19-2,51.83-8.95,18.74-7.86,30.86-22.09,39.14-40,13-28,13.76-57,7.19-86.82-3.38-15.35-11.72-28.26-18.51-41.89-11.54-23.18-25.89-45-33.54-70.06-2.1-6.9-3.28-14.1-7.43-20.44-2.71-4.14-5.61-7.62-10-9.65-10.09-4.69-19.92.74-21.68,11.87-2.4,15.21.73,30,3.51,44.8,6,32.19,13.07,64.28,11.82,97.31-1.37,36.44-15.07,66.6-46.1,87.58-2.27,1.54-4.15,3.22-7,2" transform="translate(-262.2 -908.84)"/><path class="cls-1" d="M1244.1,1293.13V1018.7h-7.7q-144.21,0-288.43,0c-8.81,0-8.43-.39-8.42,8.42q0.06,121.81.07,243.62c0,2.32-.83,4.79.65,7" transform="translate(-262.2 -908.84)"/><path class="cls-1" d="M1614.43,1153.82c-1.18-2.48-.68-5.13-0.68-7.7q0-98,0-196c0-2.57.49-5.22-1-8.4H1606q-140.71,0-281.43,0c-8.81,0-8.44-.39-8.42,8.42q0.09,44.45,0,88.91c0,2.88-.33,5.81,1.4,8.4" transform="translate(-262.2 -908.84)"/><path class="cls-1" d="M779.25,1197.92V909.84H592.74c-0.15,2-.39,3.61-0.39,5.25q0,63.71,0,127.41c0,1-.47,2.1.68,2.8" transform="translate(-262.2 -908.84)"/><path class="cls-1" d="M903.87,1428.24c-9.18,5.87-20.08,5.6-30.15,8.22-21.14,5.5-38.55,16.31-52.49,33.06-9.75,11.72-17.76,24.53-21.53,39.27-8.2,32.11,12.5,65.52,43.95,71.41,14.83,2.77,29.87,3.55,44.82,4q40.92,1.1,81.9.1,80.86-1.9,161.72-1.07c11,0.1,22.09,1,32.88-.43,28.74-3.79,42.34-30.59,31.49-56.47-1-2.49-1.39-5.5-4.16-7" transform="translate(-262.2 -908.84)"/><path class="cls-1" d="M1565.43,1190.22c1.88,5.72-.68,11.77,1.38,17.51,5.44,15.13,16.71,24.19,30.77,30.91,11.35,5.42,23.62,8.15,35.06,13.17,28.69,12.59,42.59,34.27,43.86,65.81,0.54,13.45-3.58,24.52-9,35.68-12.38,25.67-26.36,50.53-39.66,75.73-13,24.56-27.22,48.4-39.6,73.31-6,12.15-13.26,23.75-17.82,36.57-2.62,7.34-4.14,15.09-2.25,23.06,2,8.23,6.25,11.87,14.72,11.87,9.1,0,18.17-1.55,27.31,0" transform="translate(-262.2 -908.84)"/><path class="cls-1" d="M1678.14,1326.73c5.08-2.36,6.43-7.72,8.18-12,6.92-16.87,14.62-33.44,19.92-51,7.11-23.54,4.66-45.54-6.87-67.35-8.1-15.31-20.63-25.64-34.75-33.8-8.53-4.93-19-7.16-29.19-8-24.23-2-46.2,4.05-62.83,22.45-14.11,15.61-23.67,33.51-22.8,55.87,0.45,11.63-2.8,23-8.18,33.59-0.38.74-1,1.36-1.37,2.11-4.67,10-5.21,14.35,7.73,17.5,2.59,7.52,1.05,15.48,2.25,23.06,3.19,20.24,13,27.42,32.72,28,16.79,0.49,24.63,9.21,27.15,23.16,1.71,9.47-5.08,22.76-20.13,28-13.41,4.69-27.25,6.74-41.32,7.64-22.47,1.44-44.91.26-67.19-2.25-30.07-3.39-36.26-32.76-25.83-52.3,4.13-7.73,10.86-13.05,18.8-16.88s16.39-7.3,23.07-13.32c14.09-12.7,14.21-28.86,9.7-45.41-3.57-13.11-9.44-25.72-10.77-39.27-0.82-8.37-1.12-17.53,6-24.52a14,14,0,0,1,10.55-4.16c4.43,0,8.87,0,13.3,0,12.56,0,16.75-5.65,14.06-18.21a131.75,131.75,0,0,0-11.83-33c-2.82-5.47-6.1-11.65-5.94-17.42a160.82,160.82,0,0,1,1.31-19.27h24.45v23.37c-7.4,2.18-15.63-.47-23.45,1.49" transform="translate(-262.2 -908.84)"/><path class="cls-1" d="M644.14,1053c1.87,1.63,3.47,4,5.65,4.78,9.9,3.58,15.63,11.73,22.54,18.85,5,5.14,3.56,11.39,5.26,17,1.75,5.79.71,12.13,6.22,17,2.38,2.11,1.62,7.41,3.12,10.89,10.73,24.88,18.35,51.08,31.54,74.88,5,9,3.77,12.46-7.84,16.78-9,3.34-9,3-9.1,12.68-0.28,18.21,1.07,36.46-1.38,54.61-2.14,15.89-16.72,28.93-32.9,29.4-14.68.42-28.8,2.24-41.36,11.12-18.36,13-26.5,31.29-19.71,56.14,4.73,17.33,13.33,32.6,22.71,47.47,8.93,14.17,19,27.66,28.62,41.35,1.2,1.7,3.21,2.84,4.84,4.24" transform="translate(-262.2 -908.84)"/><path class="cls-1" d="M485.93,1135.61c0.49-6.07-5.32-8.29-7.71-12.6a53.18,53.18,0,0,0-23.14-22.32c-18.06-9-36.43-5.91-53.78,1.52-28.28,12.11-37.3,38.26-35.17,67.71,2.54,35.17,16.54,66.31,33.07,96.55,8.87,16.23,17.84,32.48,22.13,50.5,6.52,27.34,3.16,53.38-10.63,78.58-6,10.89-15.14,14.06-24.89,18" transform="translate(-262.2 -908.84)"/><path class="cls-1" d="M819.16,1211.22c-6-1.24-10.43-5.64-16.06-7.82-31.8-12.31-63,2.85-73.65,33.69-3.61,10.47-8.12,20.65-12.66,30.77a31.38,31.38,0,0,0-1.8,6.4c-1.41,6.5,3.06,11.21,9.6,9.59,5.78-1.43,7.38,1,8.5,5.77,2.09,8.92-1.64,17-3.67,25.19-2.51,10.19-1.24,19.13,7.22,25.8,3.35,2.65,7.74,4.1,11.83,5.65a31.08,31.08,0,0,1,8.37,5c5.64,4.49,9.18,10.28,7.54,17.47-1.76,7.7-7.93,11.4-15.24,13.35-8.64,2.3-17.71,3.65-25.81,7.2-16.49,7.23-28,20.19-37.32,35.42a270.88,270.88,0,0,0-13.15,23.89c-3.76,7.81-7.24,15.76-10.81,23.58,11.82,16.14,22.13,32.72,29,51.29,5.51,14.81,7.78,29.35,0,44.15-8.57,16.27-28,19.51-41.4,7-9.38-8.76-12-19.26-10.5-31.57,3-24.51,11.89-46.93,23.16-68.6" transform="translate(-262.2 -908.84)"/><path class="cls-1" d="M905.27,1428.94c18.16-13.42,19.36-28.17,12.41-52.45-3.3-11.53-8.6-22.49-13.13-33.65-5.25-12.93-7.92-25.92-1.35-39.2,2.09-4.21-.94-7.86-0.88-11.92,0.32-20.53.15-41.07,0.15-61.6q0-69,0-137.91c0-9.09,0-9.1-9.1-9.1-21.7,0-43.41.19-65.1-.13-5.6-.08-7.16,1.53-7.13,7.13,0.24,36.64.11,73.27,0.14,109.91,0,4.27.26,8.53-1.91,13,5.45,3.82,7.82,10.45,13.8,13.65" transform="translate(-262.2 -908.84)"/><path class="cls-1" d="M1008.88,1445c-6.3-1.4-12.62-2.71-18.9-4.22-11-2.66-17.23-8.66-17.51-16.78-0.25-7.29,3.13-12.23,10.5-15.41,4-1.74,8.15-3.18,11.94-5.53,8.1-5,11.33-11.76,9-20.37-1.55-5.86-3.5-11.62-4.83-17.52-2-9,2.39-13.54,11.84-12.59s13.26-3.62,9-12.54c-7.26-15.08-14.5-30.38-25.19-43.37-14.34-17.44-34.49-21.59-55.07-17.7-12.32,2.33-24.79,8.48-33.06,19.67-0.36.49-1.36,0.5-2.06,0.73" transform="translate(-262.2 -908.84)"/><path class="cls-1" d="M1078.18,1125.81l-1.21-20h-22.59c0,9.91,0,19.48,0,29.05a3.18,3.18,0,0,0,.7,2.07c8.78,8.73,8.06,20.87,11,31.58,5.35,19.4,17.3,31.89,35.8,39.32,10.62,4.26,21.63,8.32,30.78,15.36,14.27,11,19,26.78,19.62,44s-0.74,34.58,1.45,51.8c0.68,5.35,1,10.76,4.23,15.39a4.46,4.46,0,0,1-.08,5.56c-19.9,23.22-20,49.94-13.93,77.76s20,52.15,34.29,76.31q7,11.89,14,23.8" transform="translate(-262.2 -908.84)"/><path class="cls-1" d="M679.14,1107.61c-1.14,1.52-2.61,2.69-2.85,4.89-3.23,29-18.78,50-42.61,65.88-20.52,13.67-41.42,27-60.72,42.23-16.44,13-30.69,28.59-34.71,50.78-0.76,4.2.25,9.1-3.33,12.63" transform="translate(-262.2 -908.84)"/><path class="cls-1" d="M1055.78,1139.82c-9.71,8.25-14.91,19.79-21.5,30.23-3,4.72-1.89,11-2.28,16.68-0.83,12-1.85,23.94-4.31,35.68-1.49,7.13-5.14,13.43-8.93,19.67-4.35,7.16-3.2,9.84,4.84,11.76,4.51,1.07,6,3.53,5.59,7.8-0.74,7.93-1.74,15.86-2,23.8-0.32,8.92.72,17.55,4.65,26,5.11,11,14.46,12.49,24.66,13.24,9.11,0.68,18.17-1.8,27.31-.06,16.94,3.24,29.07,18.07,23.07,35-2.63,7.41-8,12.14-15.36,14.74-7.73,2.71-15.83,3.9-23.83,4.72-23.41,2.4-38.25,15.95-48.2,35.91-4.82,9.68-8.66,19.84-9.89,30.76" transform="translate(-262.2 -908.84)"/><path class="cls-1" d="M1158.69,1340.73c12.37,20.93,30,37.68,44.7,56.79,26.1,34,24.88,76.47.14,109.15-3.33,4.39-6.68,8.68-11.23,11.88" transform="translate(-262.2 -908.84)"/><path class="cls-1" d="M832.46,1287.53c-8.22,17.54-18.59,34.31-18.92,54.6-0.31,18.66,10.58,28.28,23.16,33.53,8.23,3.44,17,5.72,25.13,9.26,18.77,8.14,32.28,21.81,40.67,40.5a16.28,16.28,0,0,0,2.07,2.81" transform="translate(-262.2 -908.84)"/><path class="cls-1" d="M1689.34,1083.81c2.35,5.55,7.35,5.16,11.9,4.83,19.13-1.38,38.28-.23,57.41-0.63,0.93,0,1.87,0,2.8,0,8.89,0,12.44-2,12.6-7s-5.55-11-11.9-11c-6.92,0-12.83-1.65-18.21-5.8-2.77-2.14-5.35-1.59-8.46-.13a13.53,13.53,0,0,1-13.32-.44c-6-3.45-12.05-1.88-14.37,4.16-1.65,4.31-4.58,5.21-8,6.16-5.11,1.44-9.8,3.22-11.19,9.14" transform="translate(-262.2 -908.84)"/><path class="cls-1" d="M659.89,1062.11c2-3.34.56-7,1.31-11.09-5.69-.64-10.9-2.08-16.44,1.16-5.72,3.35-11.32-1-16.67-2.24-29-6.47-56.42-3.42-82.69,10.72-24.75,13.32-42.59,32.95-54.57,58.16-1.79,3.77-1.68,8.49-5.61,11.2" transform="translate(-262.2 -908.84)"/><path class="cls-1" d="M1695.64,1187.77c10.44-3.19,20-7.56,24.5-18.55a28.94,28.94,0,0,0-8.39-33.61c-8.47-7.1-24-7.87-32.95-2.16-10.39,6.64-13.49,16.77-14.66,28.07" transform="translate(-262.2 -908.84)"/><path class="cls-1" d="M678.44,1092.21a3.91,3.91,0,0,1,1.4-.67c4.67-.05,9.33,0,14.16,0,2.31-3.48,1.11-7.45,1.19-11.2,0.18-8.16-.1-16.34.12-24.5,0.11-4.21-1.47-5.74-5.66-5.66-13.7.26-12.5-1.45-12.69,12-0.08,5.62,1.74,11.58-2,16.8" transform="translate(-262.2 -908.84)"/><path class="cls-1" d="M859.06,976c0.17,7.33,5.75,6.89,10.5,6.94,17,0.16,34.07.14,51.1,0,5.84,0,11.6,1.71,17.53.16,2.83-.74,5.81-0.57,6.24-4.33,0.38-3.32-1.29-5.51-4.16-7-2-1.07-3.73-2.75-6.31-2.83-3.72-.11-6.05-1.8-7.86-5.48-3.13-6.35-10.36-8.67-15.82-4.8-4.15,2.94-7.48,2.39-11.33.51-4.29-2.09-8.29-2-11.9,1.41a15.76,15.76,0,0,1-11.9,4.1c-8.27-.39-13.11,4.06-16.81,10.6" transform="translate(-262.2 -908.84)"/><path class="cls-1" d="M1032.68,1169.22c-4.18-4-9.33-1.5-14-2a92.13,92.13,0,0,0-9.79-.06c0,15.16-.05,30,0,44.8,0,3,2.26,3.57,4.85,3.52,4.67-.09,9.33,0,14,0" transform="translate(-262.2 -908.84)"/><path class="cls-1" d="M1194.39,1215.42c5.13,0,10.27,0,15.4,0,2.51,0,4.91,0,4.9-3.51q0-22.23,0-44.45h-22c-3.94,9.6-2.35,19.12-1,28.33,2.78,18.28.39,36.06-2.83,54a77.16,77.16,0,0,0-.72,18.87c0.75,10.64,5.62,18.82,16,23.17,3,1.25,6.46,1.77,8.43,4.84" transform="translate(-262.2 -908.84)"/><path class="cls-1" d="M1167.79,1145.42c2.77-6.37.8-13.08,1.39-19.6,0.08-.93,0-1.87,0-2.8,0-18.16,0-18-18.2-17.6-4.3.1-5.7,1.39-5.71,5.7,0,6.06,1.21,12.24-.93,18.2" transform="translate(-262.2 -908.84)"/><path class="cls-1" d="M833.16,1287.53c3.9,4.47.87,10.22,2.81,15.05h17.85v-18.91c-6.91,1.46-14.22-1.94-20.65,3.16" transform="translate(-262.2 -908.84)"/><path class="cls-1" d="M836,1231.52h17.85v-19.25H836c-0.79,8.75-2.5,17.58.45,27,3.85,12.3,2,24.89-2,37a17.82,17.82,0,0,0-.59,9.14" transform="translate(-262.2 -908.84)"/><path class="cls-1" d="M1452,1039.71c2.73-1.91,2.89-4.7,2.83-7.7-0.11-5.83,0-11.67,0-17.85h-24c-1.47,5.62.53,11.2-1.24,16.45" transform="translate(-262.2 -908.84)"/><path class="cls-1" d="M1362.41,1027.8c-1.51-4.32-.17-8.95-0.91-13.65h-24.42c0.53,7.35-.65,14.37.83,21.35" transform="translate(-262.2 -908.84)"/><path class="cls-1" d="M1122.29,1122.31c1.51-5.37.27-10.73,0.88-16.45h-22.58v15.4" transform="translate(-262.2 -908.84)"/><path class="cls-1" d="M1496.82,1088c3.69-1.6,5.46-4.11,5-8.41-0.64-5.68.66-11.48-.87-17.61-6.44.78-13-1.12-19.51,1.17" transform="translate(-262.2 -908.84)"/><path class="cls-1" d="M840.16,1248.33h13.65V1267c-5.25.07-10.5,0.92-15.75-.48" transform="translate(-262.2 -908.84)"/><path class="cls-1" d="M1407.91,1025.7c1.49-3.42.24-7,.87-11-8.28-1.71-16.49-.45-25.56-1,0.46,4.37-.41,7.87.89,11.37" transform="translate(-262.2 -908.84)"/><path class="cls-1" d="M1059.28,1137.71c16.12-12.62,34.31-16.43,54.62-15,20.64,1.5,37.83,10.27,52.93,23,7.53,6.33,12.93,15.54,17,24.92,1.33,3.06,2.16,6.29,5.65,7.68" transform="translate(-262.2 -908.84)"/><path class="cls-1" d="M693.15,1132.11c4-6.43,2.62-13.74,1.65-20.24-0.68-4.57-6.22-3.46-10.05-1.47" transform="translate(-262.2 -908.84)"/><path class="cls-1" d="M534.23,1009.6c-7.45-3.67-16.27-3.85-23.12-9.08a3.68,3.68,0,0,0-2.08-.7c-14.23,0-28.46,0-42.41,0,6.23,14.84,14.87,17.53,30.51,7" transform="translate(-262.2 -908.84)"/><path class="cls-1" d="M479.63,1013.8c2.53,5.43,7.59,5.74,12.6,6.32,14.54,1.68,27.43-3.19,39.91-9.82" transform="translate(-262.2 -908.84)"/><path class="cls-1" d="M516.73,1005.4l-0.7,10.5" transform="translate(-262.2 -908.84)"/><path class="cls-1" d="M1148.19,1043.91c-3.58.92-2.78,3.82-2.79,6.3,0,12.13.2,24.27-.11,36.4-0.13,5,1.47,6.41,6.4,6.42,17.5,0,17.5.18,17.5-17.61,0-8.63-.19-17.27.08-25.9,0.13-4.33-1.35-5.93-5.68-5.67-4.88.29-9.8,0.07-14.7,0.07" transform="translate(-262.2 -908.84)"/><path class="cls-1" d="M1194.39,1043.91c-1.62.25-2.76,1.18-2.77,2.8-0.06,15.17,0,30.34,0,45.85h21.82c1.5-4.51,2-40.3.45-48.65h-18.77" transform="translate(-262.2 -908.84)"/><path class="cls-1" d="M714.15,1050.21c-2.25.12-2.86,1.36-2.84,3.5,0.08,11,.14,21.94,0,32.9-0.05,3.68,1.27,5.1,5,4.94,13.35-.56,14.31,3.19,14-13.34-0.13-7.47-.18-14.94,0-22.4,0.12-4.21-1.47-5.92-5.66-5.65-3.25.22-6.53,0-9.8,0" transform="translate(-262.2 -908.84)"/><path class="cls-1" d="M1433.12,965.5c-1.51.36-2.73,1.29-2.75,2.8-0.11,7.24,0,14.48,0,22.05h24.5c0-7.1-.09-13.88,0-20.65,0.07-3.64-1.89-4.3-4.94-4.23-5.36.12-10.73,0-16.1,0" transform="translate(-262.2 -908.84)"/><path class="cls-1" d="M749.15,1050.21c-2.25.12-2.86,1.36-2.84,3.5,0.08,11,.14,21.94,0,32.9-0.05,3.68,1.28,5.05,5,4.95,15.57-.45,13.21,2.23,13.29-12.65,0-9.1,0-18.2,0-27.76-4.73-1.84-9.79-.57-14.7-0.94" transform="translate(-262.2 -908.84)"/><path class="cls-1" d="M749.15,992.1c-3.19.34-2.8,2.72-2.8,4.9,0,10,.17,20.07-0.08,30.1-0.11,4.33,1.35,5.82,5.68,5.67,14.39-.49,12.54,2.11,12.59-12,0-9.34,0-18.68,0-27.93-5.31-1.42-10-.48-14.7-0.77" transform="translate(-262.2 -908.84)"/><path class="cls-1" d="M869.56,1248.33c-3.19.34-2.81,2.72-2.8,4.9,0,4.2,0,8.4,0,13.11,6.22,1.78,12.58.4,18.94,1.08a18.55,18.55,0,0,0,.64-3c0-16.1,0-16.1-16.08-16.1" transform="translate(-262.2 -908.84)"/><path class="cls-1" d="M869.56,1319.73c-2,2.42-4.16,15.23-2.77,17.48a4.75,4.75,0,0,0,4.87,2.18,54.19,54.19,0,0,1,9.09,0c4.33,0.38,5.63-1.34,5.71-5.65,0.24-14,.41-14-13.4-14h-2.8" transform="translate(-262.2 -908.84)"/><path class="cls-1" d="M837.36,1319.73c-4.48,6-.78,12.61-2.52,19.25h19v-19.25H838.06" transform="translate(-262.2 -908.84)"/><path class="cls-1" d="M869.56,1176.22c-1.06.53-2.77,0.29-2.79,2.1,0,5.38,0,10.75,0,16.8,5.6,0,10.5-.07,15.4,0,3,0.06,4.41-1.22,4.2-4.23a5.09,5.09,0,0,1,0-.7c1-14,1-14-16.1-14" transform="translate(-262.2 -908.84)"/><path class="cls-1" d="M610.54,933.3c-3.19.34-2.8,2.72-2.8,4.9,0,10,.17,20.07-0.08,30.1-0.11,4.33,1.35,6.09,5.68,5.63,3.95-.42,8,0.63,12.25-0.84V934c-5-1.33-9.69-.39-14.35-0.68" transform="translate(-262.2 -908.84)"/><path class="cls-1" d="M645.54,933.3c-1.62.25-2.76,1.18-2.77,2.8-0.06,12.37,0,24.74,0,37,5.07,1.49,9.57.5,14,.81,2.52,0.18,4.19-.74,4.19-3.5,0-12.14,0-24.28,0-36.33-5.31-1.42-10-.48-14.7-0.77" transform="translate(-262.2 -908.84)"/><path class="cls-1" d="M838.76,1176.22c-2.4.37-3.55,1.71-3.52,4.2,0.06,4.79,0,9.59,0,14.35h18.55V1176.9c-4.73-1.37-9.57-.39-14.35-0.68" transform="translate(-262.2 -908.84)"/><path class="cls-1" d="M610.54,992.1c-3.19.34-2.8,2.72-2.8,4.9,0,10,.17,20.07-0.08,30.1-0.11,4.33,1.35,5.82,5.68,5.67,14.39-.49,12.54,2.11,12.59-12,0-9.34,0-18.68,0-27.93-5.31-1.42-10-.48-14.7-0.77" transform="translate(-262.2 -908.84)"/><path class="cls-1" d="M837.36,1104.11c-4.48,6-.78,12.61-2.52,19.25h19v-19.25H838.06" transform="translate(-262.2 -908.84)"/><path class="cls-1" d="M645.54,992.1c-3.19.34-2.8,2.72-2.8,4.9,0,10,.17,20.07-0.08,30.1-0.11,4.33,1.35,5.82,5.68,5.67,14.39-.49,12.54,2.11,12.59-12,0-9.34,0-18.68,0-27.93-5.31-1.42-10-.48-14.7-0.77" transform="translate(-262.2 -908.84)"/><path class="cls-1" d="M678.44,992.1c-1.48,1.06-1.4,2.64-1.4,4.2,0,11.91,0,23.81,0,36.05h17.5V992.1h-15.4" transform="translate(-262.2 -908.84)"/><path class="cls-1" d="M869.56,1211.92c-4,1.1-2.78,4.41-2.74,7,0.06,4-.72,8,0.87,12.6,4.66,0,9.57-.06,14.47,0,2.53,0,4.17-.76,4.19-3.52,0-4.2,0-8.4,0-12.6,0-3.46-2.35-3.56-4.9-3.52-3.73.06-7.47,0-11.2,0" transform="translate(-262.2 -908.84)"/><path class="cls-1" d="M1572.43,1109.71c-2.71.77-2.07,3-2.08,4.9,0,6.31,0,12.62,0,19.25h24.15v-24.15h-21.35" transform="translate(-262.2 -908.84)"/><path class="cls-1" d="M714.15,992.1c-3.19.34-2.8,2.72-2.8,4.9,0,10,.17,20.07-0.08,30.1-0.11,4.33,1.35,6,5.68,5.66,3.95-.29,7.93-0.06,12.6-0.06V992.1h-14.7" transform="translate(-262.2 -908.84)"/><path class="cls-1" d="M678.44,933.3c-1.48,1.06-1.4,2.64-1.4,4.2,0,11.91,0,23.81,0,36.05h17.5V933.3h-15.4" transform="translate(-262.2 -908.84)"/><path class="cls-1" d="M714.15,933.3c-3.19.34-2.8,2.72-2.8,4.9,0,10,.17,20.07-0.08,30.1-0.11,4.33,1.35,6,5.68,5.66,3.95-.29,7.93-0.06,12.6-0.06V933.3h-14.7" transform="translate(-262.2 -908.84)"/><path class="cls-1" d="M749.15,933.3c-1.62.25-2.76,1.18-2.77,2.8-0.06,12.37,0,24.74,0,37.45H764.2V934c-5-1.33-9.69-.39-14.35-0.68" transform="translate(-262.2 -908.84)"/><path class="cls-1" d="M966.17,1167.12c-3.87.8-2.76,3.88-2.77,6.3-0.06,13.53,0,27.07,0,41.19,6.4,1.69,13.06.46,19.6,0.78,2.24,0.11,3.48-1.22,3.49-3.47,0-14.82,0-29.64,0-44.8h-19.6" transform="translate(-262.2 -908.84)"/><path class="cls-1" d="M869.56,1104.11c-4,1.1-2.78,4.41-2.74,7,0.06,4-.72,8,0.87,12.6,4.66,0,9.57-.06,14.47,0,2.53,0,4.17-.76,4.19-3.52,0-4.2,0-8.4,0-12.6,0-3.46-2.35-3.56-4.9-3.52-3.73.06-7.47,0-11.2,0" transform="translate(-262.2 -908.84)"/><path class="cls-1" d="M1480,1013.8c-1.06.53-2.78,0.29-2.79,2.1,0,7.24,0,14.48,0,22.05h24.5c0-6.64,0-13.29,0-20,0-3.35-1.9-4.28-4.91-4.23-5.37.09-10.73,0-16.1,0" transform="translate(-262.2 -908.84)"/><path class="cls-1" d="M869.56,1140.52c-3.19.34-2.81,2.72-2.8,4.9,0,4.2,0,8.4,0,13.11,6.22,1.78,12.58.4,18.94,1.08a18.57,18.57,0,0,0,.65-3c0-16.1,0-16.1-16.08-16.1" transform="translate(-262.2 -908.84)"/><path class="cls-1" d="M1340,965.5c-1.51.36-2.73,1.29-2.75,2.8-0.11,7.24,0,14.48,0,22.05H1361c1.69-6.76.39-14.11,0.73-21.35,0.16-3.46-2.32-3.54-4.87-3.52-5.37.05-10.73,0-16.1,0" transform="translate(-262.2 -908.84)"/><path class="cls-1" d="M966.17,1105.51c-3.19.34-2.8,2.72-2.8,4.9,0,12.83.15,25.67-.08,38.5-0.08,4.33,1.35,6,5.69,5.66a95,95,0,0,1,11.89,0c3.67,0.19,5.54-1.5,5.56-4.95,0.09-14.47,0-28.94,0-44.1h-19.6" transform="translate(-262.2 -908.84)"/><path class="cls-1" d="M1011,1105.51c-2.9,1-2.06,3.55-2.07,5.6-0.05,12.13.1,24.27-.09,36.4-0.08,5.13,1.72,7.11,7.06,7.11,16.1,0,16.1.17,16.1-16.21v-32.9h-20.3" transform="translate(-262.2 -908.84)"/><path class="cls-1" d="M1386.21,965.5c-4.59,1.58-2.69,5.48-2.72,8.4-0.16,16.8-.08,16.82,16.72,16.78,2.57,0,5.22.49,8.4-1,0-6.46-.09-13.24,0-20,0.07-3.64-1.89-4.3-4.94-4.23-5.6.12-11.2,0-16.8,0" transform="translate(-262.2 -908.84)"/><path class="cls-1" d="M1057.18,1043.91c-3.58.92-2.78,3.82-2.79,6.3,0,12.13.2,24.27-.11,36.4-0.13,5,1.44,6.74,6.41,6.39s10.26-.08,16.1-0.08v-49h-18.9" transform="translate(-262.2 -908.84)"/><path class="cls-1" d="M869.56,1284c-1.06.53-2.77,0.29-2.79,2.1,0,5.38,0,10.75,0,16.8,5.6,0,10.5-.11,15.4,0,3.64,0.11,4.32-1.88,4.23-4.94-0.13-4.2,0-8.4,0-13.08-5.2-1.91-10.73-.49-16.1-0.92" transform="translate(-262.2 -908.84)"/><path class="cls-1" d="M1571.73,1062.11c-3,7.07-.82,14.48-1.29,21.71-0.09,1.47,1.43,2.81,3.39,2.8,6.78,0,13.55,0,20.65,0v-24.5h-22.05" transform="translate(-262.2 -908.84)"/><path class="cls-1" d="M1526.22,1062.11c-3.5.58-2.78,3.3-2.79,5.6,0,5.83,0,11.67,0,18.07,8.11,1.67,16.32.42,24.85,1v-24.64h-21.35" transform="translate(-262.2 -908.84)"/><path class="cls-1" d="M1194.39,1105.51c-3.19.34-2.8,2.72-2.8,4.9,0,12.83.15,25.67-.08,38.5-0.08,4.33,1.35,6,5.69,5.66a95,95,0,0,1,11.89,0c3.67,0.19,5.54-1.5,5.57-4.95,0.09-14.47,0-28.94,0-44.1h-19.6" transform="translate(-262.2 -908.84)"/><path class="cls-1" d="M837.36,1140.52c-4.13,5.29-1.81,11.13-1.38,16.8,0.17,2.17,1.93,2.08,3.48,2.09,4.79,0,9.59,0,14.35,0v-18.9H838.06" transform="translate(-262.2 -908.84)"/><path class="cls-1" d="M1526.22,1013.8c-1.06.53-2.78,0.29-2.79,2.1,0,7.24,0,14.48,0,22.05h24.85v-23.4c-6.76-1.69-14.12-.32-21.35-0.75" transform="translate(-262.2 -908.84)"/><path class="cls-1" d="M714.15,1109c-2.25.12-2.86,1.36-2.84,3.5,0.08,11,.14,21.94,0,32.9-0.05,3.68,1.27,5.13,5,4.95,4.19-.21,8.4,0,12.88,0,2.18-4,.94-8.39,1.06-12.6,0.2-7.46-.17-14.94.14-22.4,0.2-4.85-1.56-6.78-6.39-6.35-3,.26-6.06,0-9.1,0" transform="translate(-262.2 -908.84)"/><path class="cls-1" d="M1480,965.5c-1.51.36-2.73,1.29-2.75,2.8-0.11,7.24,0,14.48,0,22.05H1501c1.69-6.76.63-14.12,0.58-21.35,0-2.4-2.46-3.73-5.43-3.58-5.12.27-10.26,0.07-15.4,0.07" transform="translate(-262.2 -908.84)"/><path class="cls-1" d="M1572.43,1013.8a2,2,0,0,0-2.08,2.1c0,7.36,0,14.72,0,22.05h24.15V1013.8h-21.35" transform="translate(-262.2 -908.84)"/><path class="cls-1" d="M1526.22,965.5c-4.59,1.58-2.69,5.48-2.72,8.4-0.16,16.8-.08,16.75,16.72,16.82,8.81,0,8.46.39,8.42-8.42-0.08-16.8,0-16.8-16.82-16.8h-4.9" transform="translate(-262.2 -908.84)"/><path class="cls-1" d="M749.15,1109c-2.25.12-2.86,1.36-2.84,3.5,0.08,11,.14,21.94,0,32.9-0.05,3.68,1.28,5.05,5,4.95,15.57-.45,13.21,2.23,13.29-12.65,0-9.1,0-18.2,0-27.76-4.73-1.84-9.79-.57-14.7-0.94" transform="translate(-262.2 -908.84)"/><path class="cls-1" d="M1573.13,965.5c-1.51.36-2.73,1.29-2.75,2.8-0.11,7.24,0,14.48,0,22.05h24.5c0-7.1-.09-13.88,0-20.65,0.07-3.64-1.89-4.3-4.94-4.23-5.36.12-10.73,0-16.1,0" transform="translate(-262.2 -908.84)"/><path class="cls-1" d="M1103.38,1043.91c-1.62.25-2.76,1.18-2.77,2.8-0.06,15.17,0,30.34,0,45.85h22.05v-48.65h-18.55" transform="translate(-262.2 -908.84)"/><path class="cls-1" d="M966.17,1043.91c-1.51.36-2.75,1.29-2.75,2.8-0.08,15.17,0,30.34,0,45.85h22.4v-48.65h-18.9" transform="translate(-262.2 -908.84)"/><path class="cls-1" d="M1011,1043.91c-1.75-.35-2,1.73-2,2.1-0.15,15.4-.13,30.81-0.13,46.55H1032c0-15.28,0-30.22,0-45.15,0-3.46-2.35-3.54-4.9-3.52-5.13.06-10.27,0-15.4,0" transform="translate(-262.2 -908.84)"/></svg>